<svg xmlns="http://www.w3.org/2000/svg" version="1.1" xmlnsXlink="http://www.w3.org/1999/xlink" xmlnsSvgjs="http://svgjs.dev/svgjs" width="1000" height="1000" viewBox="0 0 1000 1000"><rect width="1000" height="1000" fill="#000000"></rect><g transform="matrix(0.7,0,0,0.7,149.57575757575756,282.1265587044535)"><svg viewBox="0 0 396 247" data-background-color="#ffffff" preserveAspectRatio="xMidYMid meet" height="623" width="1000" xmlns="http://www.w3.org/2000/svg" xmlnsXlink="http://www.w3.org/1999/xlink"><defs></defs><g id="tight-bounds" transform="matrix(1,0,0,1,0.2400000000000091,-0.09999999999999432)"><svg viewBox="0 0 395.52 247.2" height="247.2" width="395.52"><g><svg></svg></g><g><svg viewBox="0 0 395.52 247.2" height="247.2" width="395.52"><g transform="matrix(1,0,0,1,75.54432,108.25876106591865)"><svg viewBox="0 0 244.43135999999998 30.68247786816269" height="30.68247786816269" width="244.43135999999998"><g><svg viewBox="0 0 244.43135999999998 30.68247786816269" height="30.68247786816269" width="244.43135999999998"><g><svg viewBox="0 0 244.43135999999998 30.68247786816269" height="30.68247786816269" width="244.43135999999998"><g><svg viewBox="0 0 244.43135999999998 30.68247786816269" height="30.68247786816269" width="244.43135999999998"><g><svg viewBox="0 0 244.43135999999998 30.68247786816269" height="30.68247786816269" width="244.43135999999998"><g><svg viewBox="0 0 244.43135999999998 30.68247786816269" height="30.68247786816269" width="244.43135999999998"><g transform="matrix(1,0,0,1,0,0)"><svg width="244.43135999999998" viewBox="0 -35.79999923706055 285.17999267578125 35.79999923706055" height="30.68247786816269" data-palette-color="#111111"><path d="M25.25-2.15L31.5-2.15 31.5 0 0 0 0-2.15 6.4-2.15Q4-3.4 2-5.25L2-5.25 5.7-9.7Q11-5.1 16.7-5.1L16.7-5.1Q19.55-5.1 21.23-6.33 22.9-7.55 22.9-9.58 22.9-11.6 21.33-12.73 19.75-13.85 15.9-14.78 12.05-15.7 10.05-16.48 8.05-17.25 6.5-18.5L6.5-18.5Q3.4-20.85 3.4-25.7 3.4-30.55 6.93-33.18 10.45-35.8 15.65-35.8L15.65-35.8Q19-35.8 22.3-34.7 25.6-33.6 28-31.6L28-31.6 24.85-27.15Q23.3-28.55 20.65-29.45 18-30.35 15.43-30.35 12.85-30.35 11.2-29.3 9.55-28.25 9.55-26.13 9.55-24 11.2-22.88 12.85-21.75 18.23-20.45 23.6-19.15 26.33-16.8 29.05-14.45 29.05-10.2L29.05-10.2Q29.05-5.05 25.25-2.15L25.25-2.15ZM49.55-2.15L61.7-2.15 61.7 0 31.5 0 31.5-2.15 43.65-2.15 43.65-29.55 33.05-29.55 33.05-34.95 60.15-34.95 60.15-29.55 49.55-29.55 49.55-2.15ZM94.5-2.15L99.34-2.15 99.34 0 88.55 0 80.2-11.75 72.45-11.75 72.45 0 61.7 0 61.7-2.15 66.55-2.15 66.55-34.95 79.55-34.95Q87.55-34.95 91-32.25 94.45-29.55 94.45-23.6L94.45-23.6Q94.45-14.95 86.9-12.7L86.9-12.7 94.5-2.15ZM79.8-17.1Q84.8-17.1 86.6-18.65 88.4-20.2 88.4-23.63 88.4-27.05 86.55-28.33 84.7-29.6 79.95-29.6L79.95-29.6 72.45-29.6 72.45-17.1 79.8-17.1ZM134.24-2.15L140.04-2.15 140.04 0 128.89 0 125.39-7.95 107.89-7.95 104.39 0 93.24 0 93.24-2.15 99.04-2.15 113.49-34.95 119.79-34.95 134.24-2.15ZM110.29-13.4L122.99-13.4 116.64-27.8 110.29-13.4ZM135.19-2.15L140.04-2.15 140.04-34.95 145.94-34.95 166.24-8.85 166.24-34.95 172.14-34.95 172.14-2.15 176.99-2.15 176.99 0 165.74 0 145.94-25.5 145.94 0 135.19 0 135.19-2.15ZM207.44-2.15L214.84-2.15 214.84 0 176.99 0 176.99-2.15 189.09-2.15Q184.74-4.35 182.16-8.6 179.59-12.85 179.59-18.2L179.59-18.2Q179.59-25.85 184.89-30.83 190.19-35.8 197.76-35.8 205.34-35.8 210.34-31.4L210.34-31.4 207.19-26.9Q205.14-28.65 203.06-29.33 200.99-30 198.24-30L198.24-30Q192.89-30 189.31-26.8 185.74-23.6 185.74-18.05 185.74-12.5 189.24-9.13 192.74-5.75 197.71-5.75 202.69-5.75 206.04-7.9L206.04-7.9 206.04-17.5 211.94-17.5 211.94-5.55Q210.09-3.5 207.44-2.15L207.44-2.15ZM214.84-2.15L219.69-2.15 219.69-34.95 244.24-34.95 244.24-29.4 225.59-29.4 225.59-20.15 242.34-20.15 242.34-14.9 225.59-14.9 225.59-5.55 244.84-5.55 244.84-2.15 249.69-2.15 249.69 0 214.84 0 214.84-2.15ZM280.33-2.15L285.18-2.15 285.18 0 274.38 0 266.03-11.75 258.28-11.75 258.28 0 247.53 0 247.53-2.15 252.38-2.15 252.38-34.95 265.38-34.95Q273.38-34.95 276.83-32.25 280.28-29.55 280.28-23.6L280.28-23.6Q280.28-14.95 272.73-12.7L272.73-12.7 280.33-2.15ZM265.63-17.1Q270.63-17.1 272.43-18.65 274.23-20.2 274.23-23.63 274.23-27.05 272.38-28.33 270.53-29.6 265.78-29.6L265.78-29.6 258.28-29.6 258.28-17.1 265.63-17.1Z" opacity="1" transform="matrix(1,0,0,1,0,0)" fill="#ffffff" class="undefined-text-0" data-fill-palette-color="primary" id="text-0"></path></svg></g></svg></g></svg></g></svg></g></svg></g></svg></g></svg></g><g><path d="M151.089 146.185A122.216 122.216 0 1 0 151.089 101.015L153.856 101.015A119.449 119.449 0 1 1 153.856 146.185L151.089 146.185" fill="#111111" stroke="transparent" data-fill-palette-color="tertiary"></path></g></svg></g></svg><rect width="395.52" height="247.2" fill="none" stroke="none" visibility="hidden"></rect></g></svg></g></svg>